PathFileType	4	(X/Y/Z)	Patient5_TMGait_0pt45_1_left_08.trc.trc
DataRate	CameraRate	NumFrames	NumMarkers	Units	OrigDataRate	OrigDataStartFrame	OrigNumFrames
57.851239669421	57.851239669421	4	32	mm	57.851239669421	89	       141
Frame#	Time	R.ASIS			L.ASIS			Chest			R.Shoulder			Neck			L.Shoulder			L.Elbow			L.Wrist			R.Elbow			R.Wrist			L.Thigh.Superior			L.Thigh.Lateral			L.Thigh.Inferior			L.Patella			L.Shank.Superior			L.Shank.Lateral			L.Shank.Inferior			L.Heel			L.Midfoot.Lateral			L.Midfoot.Superior			L.Toe			R.Thigh.Superior			R.Thigh.Lateral			R.Thigh.Inferior			R.Patella			R.Shank.Superior			R.Shank.Lateral			R.Shank.Inferior			R.Heel			R.Midfoot.Lateral			R.Midfoot.Superior			R.Toe			
		X1	Y1	Z1	X2	Y2	Z2	X3	Y3	Z3	X4	Y4	Z4	X5	Y5	Z5	X6	Y6	Z6	X7	Y7	Z7	X8	Y8	Z8	X9	Y9	Z9	X10	Y10	Z10	X11	Y11	Z11	X12	Y12	Z12	X13	Y13	Z13	X14	Y14	Z14	X15	Y15	Z15	X16	Y16	Z16	X17	Y17	Z17	X18	Y18	Z18	X19	Y19	Z19	X20	Y20	Z20	X21	Y21	Z21	X22	Y22	Z22	X23	Y23	Z23	X24	Y24	Z24	X25	Y25	Z25	X26	Y26	Z26	X27	Y27	Z27	X28	Y28	Z28	X29	Y29	Z29	X30	Y30	Z30	X31	Y31	Z31	X32	Y32	Z32	

89	13.271142857143	1038.160820495996	977.385064313501	542.023719605023	1015.276719045826	951.806451342452	300.938584272338	1060.860672390635	1433.728728028377	425.516398349575	961.023810035208	1490.577426547524	595.781667073633	930.785887217285	1549.535430360157	413.017916304279	986.421010684617	1495.593974422383	230.058945211242	911.589660107161	1178.814732690543	97.943633921377	1026.502404599351	913.419540256934	92.445148793249	885.792305944578	1169.627712800945	736.278598272406	1101.410460871272	989.985286721526	660.201994703258	991.731192339055	724.134658676906	297.264898720182	895.660259974915	670.823125615703	265.183605392558	956.275542423216	597.260261835915	318.596951394860	915.447548000670	479.363214969102	322.883513667472	846.694356587188	392.854416934303	350.239297486813	752.800553942420	347.475741617302	282.894299832027	785.676159549928	282.735883940682	365.734013054434	600.922917745010	69.719235194019	375.850767043511	688.367042353104	34.280974745312	320.011167359314	788.331248511519	90.829811615501	358.902867416320	888.431033849950	45.386642080566	372.982736947150	1092.291784621638	751.595087420506	565.837302623868	1025.633244609042	660.244353381913	621.597642887753	1112.567020039503	625.211316040913	545.738925131755	1133.134790161648	527.614027343657	576.178588160957	1100.085252886048	421.044894080270	536.510202608532	1030.947254516319	345.366048855040	613.761873635191	1091.585931318951	280.977752657652	531.469871430621	984.386753915718	53.622712222093	492.201982802059	1061.280326284945	24.107142640342	566.488672886428	1166.638851819924	90.898765469464	549.785123347343	1270.861679783765	48.176522689071	551.646881382665	
90	13.288428571429	1040.312722616775	975.721515495522	544.979144325349	1015.880669089204	951.061419502339	304.058161400699	1062.868613753920	1432.904560314422	429.419031566944	964.575160478185	1489.372958540948	600.712095938809	932.684856194945	1548.877426807992	418.212544854867	986.139375921554	1495.029194580304	234.611410308232	906.319754641927	1179.630564145685	102.544191893959	1017.482745392854	912.661650516470	93.572104276725	891.423573182958	1167.703863093868	740.916736516397	1105.802573526244	987.561095154894	662.485703197015	992.376295896613	723.757587090528	299.487558631502	896.227950582366	670.608567062552	267.179845644057	956.930661712259	596.767850593681	320.114839658527	915.354299602131	477.418268697969	323.514084851964	845.006515474703	392.191912210124	350.690208392766	750.209727622967	348.661313459200	283.302876291091	782.091314799164	283.045055439136	365.818047623455	593.962239559372	72.740172238757	375.637533674349	681.021093729881	35.873469690314	319.969490288591	781.666431753289	91.169961566999	358.598265178855	880.770142174267	45.272924395118	373.001179394334	1092.722212237179	749.411823591995	566.882603469634	1026.174904781292	658.345279788844	622.653524548930	1112.425939743320	623.177797840085	545.862908638655	1132.404830550575	524.967864954202	575.217058511649	1097.649220450425	418.818662427640	535.422287157572	1028.996806251893	343.618931117837	613.350319486399	1087.546791540632	278.990769699424	529.686830019310	977.128581469179	52.450662349587	490.445703911638	1053.646032803534	24.072001903000	565.431649887721	1159.805822400825	89.216793632699	546.543665356920	1263.654580227808	45.304416117730	549.554504907313	
91	13.305714285714	1042.319445279833	974.720645508188	547.973160368618	1016.461668780036	950.922146147787	307.286221393899	1065.164109983221	1432.607128348839	433.415403531009	968.472378605194	1488.808697858575	605.673293274441	935.042572132062	1548.868892627323	423.424372739702	986.336419727464	1495.080504649672	239.270242541132	901.381024638391	1181.039314646361	107.676870792616	1008.679928056563	912.557081935890	95.097676701762	897.419383066470	1166.486881358735	745.678809506478	1110.327294660735	985.630951002895	664.840177787840	993.710503328325	723.917336088334	301.807975126574	897.832309967269	670.614315340287	269.049977774560	958.838715431864	596.677325192374	321.563056530026	916.944778598993	475.403672482140	323.786025880098	844.716517770232	391.547430449303	350.821877313346	748.973173583139	350.080621419586	283.388021461861	779.588779501906	283.750505140413	365.877237293631	587.441282492668	76.845871133063	375.266032660400	673.921024327973	37.977013653530	319.875033902013	775.548539814048	91.515434765957	358.183141148201	873.228015749893	45.100314994404	373.052340258872	1093.467744778145	748.190533558990	568.560627961479	1027.072987600618	657.407890227395	624.369612989946	1112.882386555467	622.110783503355	546.913114885788	1132.185811106585	523.278384512744	575.340381525235	1095.599881923078	417.453221786012	535.459848779986	1027.272582495298	342.878675600797	614.087925588409	1083.681510861095	277.892991347805	529.118340561831	969.785151063714	52.061197792860	489.840761932693	1046.106307955415	24.389540358042	565.215843184227	1152.837463816873	88.352088023533	544.788883602780	1256.391225701487	43.616659836334	548.523440244871	
92	13.323000000000	1044.192982570451	974.337278876103	551.025939136020	1017.007740237675	951.421089994110	310.598199222884	1067.693325062162	1432.836613749802	437.465569423548	972.672998395802	1488.893835474505	610.629251502704	937.787904633405	1549.492541819160	428.637162750801	987.010122293565	1495.793604678653	244.009992286950	896.815996858012	1183.115201557805	113.237620728313	1000.179402526422	913.184608454383	97.101260591455	903.637482821699	1166.062683824767	750.590577617423	1114.957073245372	984.452069012334	667.228375239977	995.750660703915	724.611779922370	304.050689683755	900.498955088666	670.832665400022	270.646885897336	962.109704695538	596.979512022664	322.695579691141	920.433938493679	473.357339351098	323.415112400815	846.055957583626	390.904999756135	350.421067256952	749.278870800875	351.758392917360	282.996568066015	778.380878326266	284.890824013778	365.752287866776	581.538686297347	82.265263920421	374.643344612640	667.144426386275	40.702214651904	319.674773507185	770.084116831825	91.847832201759	357.586623036128	865.813153545844	44.867692400427	373.126279223212	1094.383243533606	747.694951180566	571.162633834871	1027.779581384275	657.193130502765	626.667104341339	1113.594581824196	621.704008044172	549.076578999072	1131.924596216142	522.251573061749	576.709669701353	1093.590472174680	416.745600542244	536.556948150769	1025.200674023307	342.863181146020	615.672331575163	1079.733343169990	277.462258081883	529.630840372695	962.322699081702	52.229567338420	490.039724957637	1038.596051059312	24.822981091991	565.529991572433	1145.676836682833	88.058004010382	544.259931290229	1249.015853428561	42.844311352804	548.285724015947	
